<svg width="40" height="33" viewBox="0 0 40 33" fill="none" xmlns="http://www.w3.org/2000/svg">
<path d="M9.25165 19.1841H34.8166C35.1432 19.1841 35.4154 18.9664 35.488 18.6579L38.6087 5.43091H6.58447" stroke="white" stroke-width="1.88018"/>
<path d="M13.6958 31.5401C14.4573 31.5401 15.0747 30.9227 15.0747 30.1612C15.0747 29.3996 14.4573 28.7822 13.6958 28.7822C12.9342 28.7822 12.3168 29.3996 12.3168 30.1612C12.3168 30.9227 12.9342 31.5401 13.6958 31.5401Z" stroke="white" stroke-width="1.88018"/>
<path d="M30.4431 31.5401C31.2047 31.5401 31.8221 30.9227 31.8221 30.1612C31.8221 29.3996 31.2047 28.7822 30.4431 28.7822C29.6816 28.7822 29.0642 29.3996 29.0642 30.1612C29.0642 30.9227 29.6816 31.5401 30.4431 31.5401Z" stroke="white" stroke-width="1.88018"/>
<path d="M33.7455 26.0425H11.4101C11.0835 26.0425 10.8114 25.8066 10.7569 25.4982L6.0939 2.00159C6.02133 1.69314 5.74918 1.45728 5.42258 1.45728H0.596252" stroke="white" stroke-width="1.88018"/>
</svg>
