<svg width="65" height="72" viewBox="0 0 65 72" fill="none" xmlns="http://www.w3.org/2000/svg">
<path d="M0.971591 33.4133V66.6245C5.35122 75.5711 11.8134 70.3522 14.4971 66.6245V41.5466C14.2395 39.1066 17.1807 37.367 18.6835 36.8022H35.7514C43.8022 32.3966 39.8305 24.4892 35.7514 22.9077H9.66652C2.45295 25.6188 0.864246 31.0411 0.971591 33.4133Z" fill="white" stroke="white" stroke-width="0.890451"/>
<path d="M40.2607 16.4688H6.44706C-3.85804 10.2332 2.15327 3.70394 6.44706 1.21875H41.2268C62.0946 6.36987 65.1647 25.7318 64.0912 34.7688C63.576 51.5777 47.9895 59.8466 40.2607 61.88H27.3793C16.3013 55.9155 22.7635 49.454 27.3793 46.9688L41.2268 45.9522C57.9726 33.7521 47.5601 21.2132 40.2607 16.4688Z" fill="white" stroke="white" stroke-width="0.890451"/>
</svg>
